# xmcd
#
# Track frame offsets: 
#        150
#        15107
#        30281
#        44056
#        59034
#        68623
#        81310
#        93560
#        102497
#        115360
#        133199
#        152887
#        165758
#        181950
#        199553
#        218821
#
# Disc length: 3169 seconds
#
# Revision: 0
# Processed by: cddbd v1.5.2PL0 Copyright (c) Steve Scherf et al.
# Submitted via: ExactAudioCopy v1.0b1
#
DISCID=d50c5f10
DTITLE=Marianne Faithfull - Lady Madeleine Great Songs
DYEAR=2008
DGENRE=
TTITLE0=Dreamin' my Dreams
TTITLE1=Fairy Tail Hero
TTITLE2=This Time
TTITLE3=I'm not Lisa
TTITLE4=The Way you Want me to be
TTITLE5=Wrong Road Again
TTITLE6=All I Wanna do in Life
TTITLE7=I'm Looking for Blue Eyes
TTITLE8=Somebody Loves you
TTITLE9=Vanilla O'Lay
TTITLE10=Lady Madelaine
TTITLE11=Sweet Little Sixteen
TTITLE12=Wait for me Down by the River
TTITLE13=I'll be your Baby Tonight
TTITLE14=That was the Day
TTITLE15=Honky Tonk Angels
EXTD=
EXTT0=
EXTT1=
EXTT2=
EXTT3=
EXTT4=
EXTT5=
EXTT6=
EXTT7=
EXTT8=
EXTT9=
EXTT10=
EXTT11=
EXTT12=
EXTT13=
EXTT14=
EXTT15=
PLAYORDER=
